{
	"asset":{
		"generator":"Khronos glTF Blender I/O v4.3.47",
		"version":"2.0"
	},
	"scene":0,
	"scenes":[
		{
			"name":"Scene",
			"nodes":[
				0,
				1,
				2,
				3,
				4,
				5
			]
		}
	],
	"nodes":[
		{
			"mesh":0,
			"name":"arms_sq.008",
			"rotation":[
				0.3826834261417389,
				0,
				0,
				0.9238795638084412
			],
			"translation":[
				-0.10254764556884766,
				0.40735626220703125,
				0
			]
		},
		{
			"mesh":1,
			"name":"Body_sq.006"
		},
		{
			"mesh":2,
			"name":"Eyeballs.002",
			"rotation":[
				0.7060731053352356,
				0.038220103830099106,
				-0.038220107555389404,
				0.7060731053352356
			],
			"translation":[
				-0.1664055585861206,
				0.8479580879211426,
				0.32163193821907043
			]
		},
		{
			"mesh":3,
			"name":"Head_sq.009",
			"translation":[
				0,
				1.531631588935852,
				0
			]
		},
		{
			"mesh":4,
			"name":"Wings.009",
			"rotation":[
				0.38799193501472473,
				0.5907482504844666,
				0.3596023619174957,
				0.6092330813407898
			],
			"translation":[
				0.4153529405593872,
				1.474813461303711,
				-0.1327485889196396
			]
		},
		{
			"mesh":5,
			"name":"Wings.010",
			"rotation":[
				0.6201866269111633,
				0.33965936303138733,
				0.33965954184532166,
				0.6201866269111633
			],
			"translation":[
				0.6374945044517517,
				1.2726980447769165,
				0.033963918685913086
			]
		}
	],
	"materials":[
		{
			"doubleSided":true,
			"name":"Body",
			"pbrMetallicRoughness":{
				"baseColorTexture":{
					"index":0
				},
				"metallicFactor":0,
				"roughnessFactor":0.5
			}
		},
		{
			"doubleSided":true,
			"name":"shoes",
			"pbrMetallicRoughness":{
				"baseColorTexture":{
					"index":1
				},
				"metallicFactor":0,
				"roughnessFactor":0.5
			}
		},
		{
			"doubleSided":true,
			"name":"Vest",
			"pbrMetallicRoughness":{
				"metallicFactor":0,
				"roughnessFactor":0.5
			}
		},
		{
			"doubleSided":true,
			"name":"Eyes",
			"pbrMetallicRoughness":{
				"metallicFactor":0,
				"roughnessFactor":0.5
			}
		},
		{
			"doubleSided":true,
			"name":"Head",
			"pbrMetallicRoughness":{
				"metallicFactor":0,
				"roughnessFactor":0.5
			}
		},
		{
			"doubleSided":true,
			"name":"Hair",
			"pbrMetallicRoughness":{
				"baseColorTexture":{
					"index":2
				},
				"metallicFactor":0,
				"roughnessFactor":0.5
			}
		},
		{
			"doubleSided":true,
			"name":"Wings",
			"pbrMetallicRoughness":{
				"baseColorTexture":{
					"index":3
				},
				"metallicFactor":0,
				"roughnessFactor":0.5
			}
		}
	],
	"meshes":[
		{
			"name":"Cube.068",
			"primitives":[
				{
					"attributes":{
						"POSITION":0,
						"NORMAL":1,
						"TEXCOORD_0":2
					},
					"indices":3,
					"material":0
				}
			]
		},
		{
			"name":"Cube.071",
			"primitives":[
				{
					"attributes":{
						"POSITION":4,
						"NORMAL":5,
						"TEXCOORD_0":6,
						"COLOR_0":7,
						"COLOR_1":8
					},
					"indices":9,
					"material":0
				},
				{
					"attributes":{
						"POSITION":10,
						"NORMAL":11,
						"TEXCOORD_0":12,
						"COLOR_0":13,
						"COLOR_1":14
					},
					"indices":15,
					"material":1
				},
				{
					"attributes":{
						"POSITION":16,
						"NORMAL":17,
						"TEXCOORD_0":18,
						"COLOR_0":19,
						"COLOR_1":20
					},
					"indices":21,
					"material":2
				}
			]
		},
		{
			"name":"Sphere.006",
			"primitives":[
				{
					"attributes":{
						"POSITION":22,
						"NORMAL":23,
						"TEXCOORD_0":24
					},
					"indices":25,
					"material":3
				}
			]
		},
		{
			"name":"Cube.069",
			"primitives":[
				{
					"attributes":{
						"POSITION":26,
						"NORMAL":27,
						"TEXCOORD_0":28
					},
					"indices":29,
					"material":4
				},
				{
					"attributes":{
						"POSITION":30,
						"NORMAL":31,
						"TEXCOORD_0":32
					},
					"indices":33,
					"material":5
				}
			]
		},
		{
			"name":"B\u00e9zierCurve.027",
			"primitives":[
				{
					"attributes":{
						"POSITION":34,
						"NORMAL":35,
						"TEXCOORD_0":36
					},
					"indices":37,
					"material":6
				}
			]
		},
		{
			"name":"B\u00e9zierCurve.028",
			"primitives":[
				{
					"attributes":{
						"POSITION":38,
						"NORMAL":39,
						"TEXCOORD_0":40
					},
					"indices":37,
					"material":6
				}
			]
		}
	],
	"textures":[
		{
			"sampler":0,
			"source":0
		},
		{
			"sampler":0,
			"source":1
		},
		{
			"sampler":0,
			"source":2
		},
		{
			"sampler":0,
			"source":3
		}
	],
	"images":[
		{
			"mimeType":"image/png",
			"name":"Didi_bodysuit_1.png",
			"uri":"Assets/Materials/Textures/Bodysuit/Didi_bodysuit_1.png"
		},
		{
			"mimeType":"image/png",
			"name":"shoes",
			"uri":"shoes.png"
		},
		{
			"mimeType":"image/png",
			"name":"Untitled",
			"uri":"Hair.png"
		},
		{
			"mimeType":"image/png",
			"name":"Didi Texture_Wing (stage 2).png",
			"uri":"EyeTextures/Didi%20Texture_Wing%20%28stage%202%29.png"
		}
	],
	"accessors":[
		{
			"bufferView":0,
			"componentType":5126,
			"count":306,
			"max":[
				0.8986672759056091,
				0.10938046872615814,
				0.1502787321805954
			],
			"min":[
				-0.6935657858848572,
				-0.11846214532852173,
				-0.10886776447296143
			],
			"type":"VEC3"
		},
		{
			"bufferView":1,
			"componentType":5126,
			"count":306,
			"type":"VEC3"
		},
		{
			"bufferView":2,
			"componentType":5126,
			"count":306,
			"type":"VEC2"
		},
		{
			"bufferView":3,
			"componentType":5123,
			"count":1116,
			"type":"SCALAR"
		},
		{
			"bufferView":4,
			"componentType":5126,
			"count":283,
			"max":[
				0.2953185439109802,
				0.5256924629211426,
				0.27839985489845276
			],
			"min":[
				-0.28771427273750305,
				-0.6174746155738831,
				-0.24326367676258087
			],
			"type":"VEC3"
		},
		{
			"bufferView":5,
			"componentType":5126,
			"count":283,
			"type":"VEC3"
		},
		{
			"bufferView":6,
			"componentType":5126,
			"count":283,
			"type":"VEC2"
		},
		{
			"bufferView":7,
			"componentType":5121,
			"count":283,
			"normalized":true,
			"type":"VEC4"
		},
		{
			"bufferView":8,
			"componentType":5123,
			"count":283,
			"normalized":true,
			"type":"VEC4"
		},
		{
			"bufferView":9,
			"componentType":5123,
			"count":774,
			"type":"SCALAR"
		},
		{
			"bufferView":10,
			"componentType":5126,
			"count":667,
			"max":[
				0.29450732469558716,
				-0.5166622400283813,
				0.2725337743759155
			],
			"min":[
				-0.2946736812591553,
				-0.8355596661567688,
				-0.13046446442604065
			],
			"type":"VEC3"
		},
		{
			"bufferView":11,
			"componentType":5126,
			"count":667,
			"type":"VEC3"
		},
		{
			"bufferView":12,
			"componentType":5126,
			"count":667,
			"type":"VEC2"
		},
		{
			"bufferView":13,
			"componentType":5121,
			"count":667,
			"normalized":true,
			"type":"VEC4"
		},
		{
			"bufferView":14,
			"componentType":5123,
			"count":667,
			"normalized":true,
			"type":"VEC4"
		},
		{
			"bufferView":15,
			"componentType":5123,
			"count":2124,
			"type":"SCALAR"
		},
		{
			"bufferView":16,
			"componentType":5126,
			"count":143,
			"max":[
				0.254084974527359,
				0.5312197208404541,
				0.3142934739589691
			],
			"min":[
				-0.2549230754375458,
				0.12243402004241943,
				-0.20322680473327637
			],
			"type":"VEC3"
		},
		{
			"bufferView":17,
			"componentType":5126,
			"count":143,
			"type":"VEC3"
		},
		{
			"bufferView":18,
			"componentType":5126,
			"count":143,
			"type":"VEC2"
		},
		{
			"bufferView":19,
			"componentType":5121,
			"count":143,
			"normalized":true,
			"type":"VEC4"
		},
		{
			"bufferView":20,
			"componentType":5123,
			"count":143,
			"normalized":true,
			"type":"VEC4"
		},
		{
			"bufferView":21,
			"componentType":5123,
			"count":381,
			"type":"SCALAR"
		},
		{
			"bufferView":22,
			"componentType":5126,
			"count":66,
			"max":[
				0.12542317807674408,
				0.12542304396629333,
				0.12542250752449036
			],
			"min":[
				-0.12542305886745453,
				-0.1254231184720993,
				-0.12542365491390228
			],
			"type":"VEC3"
		},
		{
			"bufferView":23,
			"componentType":5126,
			"count":66,
			"type":"VEC3"
		},
		{
			"bufferView":24,
			"componentType":5126,
			"count":66,
			"type":"VEC2"
		},
		{
			"bufferView":25,
			"componentType":5123,
			"count":336,
			"type":"SCALAR"
		},
		{
			"bufferView":26,
			"componentType":5126,
			"count":188,
			"max":[
				0.5013153553009033,
				-0.3410789370536804,
				0.4884333908557892
			],
			"min":[
				-0.4988332688808441,
				-0.9930410981178284,
				-0.34769415855407715
			],
			"type":"VEC3"
		},
		{
			"bufferView":27,
			"componentType":5126,
			"count":188,
			"type":"VEC3"
		},
		{
			"bufferView":28,
			"componentType":5126,
			"count":188,
			"type":"VEC2"
		},
		{
			"bufferView":29,
			"componentType":5123,
			"count":561,
			"type":"SCALAR"
		},
		{
			"bufferView":30,
			"componentType":5126,
			"count":525,
			"max":[
				0.5180947184562683,
				-0.14425550401210785,
				0.484788179397583
			],
			"min":[
				-0.5205289721488953,
				-0.980120837688446,
				-0.5176721811294556
			],
			"type":"VEC3"
		},
		{
			"bufferView":31,
			"componentType":5126,
			"count":525,
			"type":"VEC3"
		},
		{
			"bufferView":32,
			"componentType":5126,
			"count":525,
			"type":"VEC2"
		},
		{
			"bufferView":33,
			"componentType":5123,
			"count":1965,
			"type":"SCALAR"
		},
		{
			"bufferView":34,
			"componentType":5126,
			"count":35036,
			"max":[
				0.26232340931892395,
				0.06209055706858635,
				0.1695997267961502
			],
			"min":[
				-0.24201206862926483,
				-0.09761498123407364,
				-1.0019978284835815
			],
			"type":"VEC3"
		},
		{
			"bufferView":35,
			"componentType":5126,
			"count":35036,
			"type":"VEC3"
		},
		{
			"bufferView":36,
			"componentType":5126,
			"count":35036,
			"type":"VEC2"
		},
		{
			"bufferView":37,
			"componentType":5123,
			"count":205476,
			"type":"SCALAR"
		},
		{
			"bufferView":38,
			"componentType":5126,
			"count":35036,
			"max":[
				0.26232340931892395,
				0.062090784311294556,
				0.1695997267961502
			],
			"min":[
				-0.8447661399841309,
				-0.08509479463100433,
				-1.337915301322937
			],
			"type":"VEC3"
		},
		{
			"bufferView":39,
			"componentType":5126,
			"count":35036,
			"type":"VEC3"
		},
		{
			"bufferView":40,
			"componentType":5126,
			"count":35036,
			"type":"VEC2"
		}
	],
	"bufferViews":[
		{
			"buffer":0,
			"byteLength":3672,
			"byteOffset":0,
			"target":34962
		},
		{
			"buffer":0,
			"byteLength":3672,
			"byteOffset":3672,
			"target":34962
		},
		{
			"buffer":0,
			"byteLength":2448,
			"byteOffset":7344,
			"target":34962
		},
		{
			"buffer":0,
			"byteLength":2232,
			"byteOffset":9792,
			"target":34963
		},
		{
			"buffer":0,
			"byteLength":3396,
			"byteOffset":12024,
			"target":34962
		},
		{
			"buffer":0,
			"byteLength":3396,
			"byteOffset":15420,
			"target":34962
		},
		{
			"buffer":0,
			"byteLength":2264,
			"byteOffset":18816,
			"target":34962
		},
		{
			"buffer":0,
			"byteLength":1132,
			"byteOffset":21080,
			"target":34962
		},
		{
			"buffer":0,
			"byteLength":2264,
			"byteOffset":22212,
			"target":34962
		},
		{
			"buffer":0,
			"byteLength":1548,
			"byteOffset":24476,
			"target":34963
		},
		{
			"buffer":0,
			"byteLength":8004,
			"byteOffset":26024,
			"target":34962
		},
		{
			"buffer":0,
			"byteLength":8004,
			"byteOffset":34028,
			"target":34962
		},
		{
			"buffer":0,
			"byteLength":5336,
			"byteOffset":42032,
			"target":34962
		},
		{
			"buffer":0,
			"byteLength":2668,
			"byteOffset":47368,
			"target":34962
		},
		{
			"buffer":0,
			"byteLength":5336,
			"byteOffset":50036,
			"target":34962
		},
		{
			"buffer":0,
			"byteLength":4248,
			"byteOffset":55372,
			"target":34963
		},
		{
			"buffer":0,
			"byteLength":1716,
			"byteOffset":59620,
			"target":34962
		},
		{
			"buffer":0,
			"byteLength":1716,
			"byteOffset":61336,
			"target":34962
		},
		{
			"buffer":0,
			"byteLength":1144,
			"byteOffset":63052,
			"target":34962
		},
		{
			"buffer":0,
			"byteLength":572,
			"byteOffset":64196,
			"target":34962
		},
		{
			"buffer":0,
			"byteLength":1144,
			"byteOffset":64768,
			"target":34962
		},
		{
			"buffer":0,
			"byteLength":762,
			"byteOffset":65912,
			"target":34963
		},
		{
			"buffer":0,
			"byteLength":792,
			"byteOffset":66676,
			"target":34962
		},
		{
			"buffer":0,
			"byteLength":792,
			"byteOffset":67468,
			"target":34962
		},
		{
			"buffer":0,
			"byteLength":528,
			"byteOffset":68260,
			"target":34962
		},
		{
			"buffer":0,
			"byteLength":672,
			"byteOffset":68788,
			"target":34963
		},
		{
			"buffer":0,
			"byteLength":2256,
			"byteOffset":69460,
			"target":34962
		},
		{
			"buffer":0,
			"byteLength":2256,
			"byteOffset":71716,
			"target":34962
		},
		{
			"buffer":0,
			"byteLength":1504,
			"byteOffset":73972,
			"target":34962
		},
		{
			"buffer":0,
			"byteLength":1122,
			"byteOffset":75476,
			"target":34963
		},
		{
			"buffer":0,
			"byteLength":6300,
			"byteOffset":76600,
			"target":34962
		},
		{
			"buffer":0,
			"byteLength":6300,
			"byteOffset":82900,
			"target":34962
		},
		{
			"buffer":0,
			"byteLength":4200,
			"byteOffset":89200,
			"target":34962
		},
		{
			"buffer":0,
			"byteLength":3930,
			"byteOffset":93400,
			"target":34963
		},
		{
			"buffer":0,
			"byteLength":420432,
			"byteOffset":97332,
			"target":34962
		},
		{
			"buffer":0,
			"byteLength":420432,
			"byteOffset":517764,
			"target":34962
		},
		{
			"buffer":0,
			"byteLength":280288,
			"byteOffset":938196,
			"target":34962
		},
		{
			"buffer":0,
			"byteLength":410952,
			"byteOffset":1218484,
			"target":34963
		},
		{
			"buffer":0,
			"byteLength":420432,
			"byteOffset":1629436,
			"target":34962
		},
		{
			"buffer":0,
			"byteLength":420432,
			"byteOffset":2049868,
			"target":34962
		},
		{
			"buffer":0,
			"byteLength":280288,
			"byteOffset":2470300,
			"target":34962
		}
	],
	"samplers":[
		{
			"magFilter":9729,
			"minFilter":9987
		}
	],
	"buffers":[
		{
			"byteLength":2750588,
			"uri":"Didi_AR.bin"
		}
	]
}
